<?xml version="1.0" encoding="UTF-8"?>
<svg version="1.1" xmlns="http://www.w3.org/2000/svg" width="1024" height="1024">

<path d="M0 0 C1.79535714 -0.00436073 3.59070809 -0.01311653 5.38602507 -0.02589166 C10.32156604 -0.04827468 15.25494096 -0.00822929 20.19020581 0.04188895 C25.51121302 0.08503234 30.83209588 0.07046288 36.15322876 0.06286621 C45.3729693 0.05761996 54.59200273 0.08902181 63.8115654 0.1452446 C77.14141493 0.2264799 90.4709222 0.25255531 103.80099244 0.26512451 C125.4273875 0.28701648 147.0534056 0.35358095 168.67959595 0.44815063 C189.68869133 0.53992634 210.69768436 0.6107176 231.7069397 0.65322876 C233.64910931 0.65716961 233.64910931 0.65716961 235.63051467 0.66119008 C242.12597714 0.67424035 248.62144034 0.68687746 255.11690402 0.69930911 C309.01224808 0.80299398 362.90718293 0.97914076 416.80215454 1.20254517 C417.03234724 2.26837798 417.26253994 3.3342108 417.49970818 4.43234158 C418.36378044 8.43283229 419.22817668 12.43325295 420.09266472 16.43365383 C420.46491075 18.1564274 420.83707199 19.8792193 421.20914268 21.60203075 C423.59944631 32.66960329 426.00343842 43.73349724 428.48223877 54.78164673 C431.33813678 67.51300852 434.13074347 80.25571318 436.81240845 93.02505493 C438.31489176 100.12795385 439.99479895 107.17106006 441.80215454 114.20254517 C443.49302631 112.53919211 445.17980299 110.87197977 446.86465454 109.20254517 C447.33065063 108.74492798 447.79664673 108.28731079 448.27676392 107.81582642 C450.98273574 105.12826257 453.54874329 102.36898616 456.03262329 99.47427368 C459.60417211 95.37673499 463.35595757 91.50373314 467.20449829 87.66738892 C467.88589371 86.98503677 468.56728912 86.30268463 469.26933289 85.59965515 C470.69921195 84.1691008 472.13033365 82.73978749 473.56265259 81.31167603 C475.73413165 79.14555443 477.90021779 76.97414343 480.06582642 74.80215454 C481.46589656 73.40274529 482.86627692 72.00364633 484.26699829 70.60488892 C484.90370956 69.96615341 485.54042084 69.32741791 486.19642639 68.66932678 C489.23682224 65.64445214 492.30523522 62.77258534 495.61819458 60.04779053 C499.26920563 56.8702795 501.97254772 53.47623113 504.74216652 49.52615929 C515.10954309 34.89484575 528.39969942 18.65500393 546.8399353 15.1076355 C566.29578788 11.91526683 586.60263715 13.34922188 606.19160712 14.39350069 C614.67249986 14.8374501 623.15493208 15.04578959 631.64463031 15.23992455 C649.04390178 15.64280271 666.42050999 16.32410766 683.80215454 17.20254517 C683.01848221 20.46683512 681.97339047 23.48687945 680.73989868 26.61294556 C680.31180405 27.70078842 679.88370941 28.78863129 679.44264221 29.90943909 C678.97475784 31.09026566 678.50687347 32.27109222 678.02481079 33.48770142 C677.53021859 34.74058443 677.03576034 35.99352033 676.54142761 37.24650574 C671.09566819 51.03565278 665.58633703 64.79955493 660.0723381 78.56151962 C658.63929923 82.13863826 657.20721549 85.71613926 655.77505493 89.29360962 C654.04640471 93.61157449 652.31768614 97.92951189 650.58851624 102.24726868 C647.38509843 110.24647209 644.18482448 118.24691766 640.98965454 126.24942017 C632.38653442 147.79276062 623.73196242 169.31501409 615.05215454 190.82754517 C605.02815118 215.661641 605.02815118 215.661641 595.05215454 240.51504517 C594.78292175 241.18787537 594.51368896 241.86070557 594.23629761 242.55392456 C590.66693815 251.4796355 587.13930777 260.42130367 583.62808228 269.37002563 C562.53122251 323.12898635 562.53122251 323.12898635 542.02871704 344.80020142 C539.76366654 347.1833962 539.76366654 347.1833962 537.72402954 349.81582642 C503.07664256 392.84337407 434.21042547 408.98068365 382.80215454 417.20254517 C381.81215454 417.20254517 380.82215454 417.20254517 379.80215454 417.20254517 C381.9893919 410.3175177 384.60129302 403.72534163 387.45840454 397.09317017 C387.91308105 396.02949722 388.36775757 394.96582428 388.83621216 393.86991882 C389.81322674 391.58524706 390.79183116 389.30125464 391.7718811 387.0178833 C394.11703469 381.55398037 396.4529148 376.08611505 398.78948975 370.61853981 C399.58563521 368.75592015 400.38221857 366.89348823 401.17886353 365.03108215 C405.69612786 354.46759772 410.1705564 343.88634674 414.62991333 333.29830933 C420.56452532 319.20770007 426.52375726 305.12830661 432.55215454 291.07754517 C432.85017975 290.38263977 433.14820496 289.68773437 433.45526123 288.97177124 C436.62163643 281.59015567 439.79677973 274.21237041 442.98150635 266.83865356 C444.39543709 263.56341478 445.80667179 260.28701799 447.21755981 257.01046753 C448.21993487 254.68577866 449.22633053 252.36285789 450.2328186 250.03994751 C450.83817988 248.63460522 451.44333462 247.22917393 452.04824829 245.82363892 C452.46888802 244.85763512 452.46888802 244.85763512 452.89802551 243.87211609 C454.34073516 240.65341015 454.34073516 240.65341015 454.80215454 237.20254517 C454.20789673 237.7478186 453.61363892 238.29309204 453.00137329 238.85488892 C447.72341004 243.65676839 442.33704488 248.26192313 436.79043579 252.74942017 C433.39465942 255.53706404 430.06523965 258.39443632 426.73965454 261.26504517 C422.02333906 265.33173217 417.24372649 269.28641782 412.35684204 273.14785767 C409.31490578 275.59443025 406.33799377 278.11090834 403.36465454 280.64004517 C398.11407837 285.10467072 392.80751845 289.49302548 387.46426392 293.84658813 C383.90485778 296.75036923 380.35270258 299.66294404 376.80215454 302.57754517 C376.05933228 303.18509644 375.31651001 303.79264771 374.55117798 304.41860962 C373.85025024 304.99441772 373.14932251 305.57022583 372.42715454 306.16348267 C371.80067017 306.67701294 371.17418579 307.19054321 370.52871704 307.71963501 C368.86928722 309.14488625 367.32628612 310.63458312 365.80215454 312.20254517 C364.81215454 311.87254517 363.82215454 311.54254517 362.80215454 311.20254517 C361.73117866 308.63281856 360.86348865 306.16808203 360.05215454 303.51504517 C359.79770065 302.7182132 359.54324677 301.92138123 359.28108215 301.10040283 C358.44382586 298.47111735 357.62320612 295.83693115 356.80215454 293.20254517 C355.9302065 290.45121244 355.05407971 287.70123098 354.17793274 284.95123291 C353.5836423 283.08448473 352.99081002 281.21727173 352.3993988 279.34960938 C349.90776874 271.48831759 347.30914551 263.66614059 344.67269897 255.85244751 C340.64381329 243.90871492 336.79111735 231.92932583 333.17398071 219.85342407 C332.72309082 218.35561401 332.72309082 218.35561401 332.26309204 216.82754517 C332.00318481 215.95356079 331.74327759 215.07957642 331.47549438 214.17910767 C330.97223458 212.22551938 330.97223458 212.22551938 329.80215454 211.20254517 C329.08491211 212.99837036 329.08491211 212.99837036 328.35317993 214.83047485 C323.69535885 226.48728207 319.02221313 238.13779708 314.31997681 249.77676392 C313.59702481 251.56739757 312.87502654 253.35841657 312.15396118 255.14981079 C311.61726807 256.48302368 311.61726807 256.48302368 311.06973267 257.84317017 C310.71478729 258.72515076 310.35984192 259.60713135 309.99414062 260.51583862 C308.94118972 263.11144316 307.86671228 265.69739419 306.79092407 268.28359985 C305.47677591 271.46269092 304.29077479 274.64842305 303.20010376 277.91055298 C299.64334102 288.06253868 299.64334102 288.06253868 294.84487915 291.03359985 C291.23866613 292.22299024 287.80777416 292.90151253 284.05215454 293.45254517 C282.85977173 293.68070923 281.66738892 293.90887329 280.43887329 294.14395142 C277.92990047 294.62020395 275.41541543 295.06809167 272.8968811 295.49087524 C268.44385999 296.24407312 264.03128992 297.1638863 259.61465454 298.10488892 C258.41975403 298.35920937 258.41975403 298.35920937 257.20071411 298.6186676 C255.56187605 298.96854214 253.92320567 299.31920295 252.28469849 299.67062378 C249.80905689 300.20106624 247.33260893 300.72756635 244.85586548 301.25283813 C239.7536008 302.33544678 234.65263012 303.42404096 229.55215454 304.51504517 C228.6395285 304.71018707 227.72690247 304.90532898 226.78662109 305.10638428 C215.37934615 307.54798131 203.98683766 310.03940257 192.61465454 312.64004517 C178.62352385 315.83828681 164.58912874 318.81901322 150.54794312 321.78863525 C137.42873786 324.56423914 124.32397076 327.39186973 111.23965454 330.32754517 C98.11820488 333.27115507 84.97353035 336.08656329 71.80981445 338.83483887 C61.70590902 340.94448212 51.62031564 343.11443604 41.55215454 345.39004517 C28.69208945 348.29323383 15.76316799 350.79487654 2.80215454 353.20254517 C4.91860403 345.20667474 7.96202962 337.64814517 11.15380859 330.03363037 C12.72511726 326.28425741 14.27974468 322.52795507 15.83731079 318.77285767 C16.16226028 317.99074417 16.48720978 317.20863068 16.82200623 316.40281677 C20.42978729 307.71124586 23.96171397 298.98925625 27.48965454 290.26504517 C28.44078174 287.91479474 29.39209148 285.56461827 30.34341431 283.21444702 C30.96018324 281.69075291 31.57688341 280.16703096 32.19351196 278.64328003 C35.36633904 270.80456884 38.55779279 262.97349684 41.75137329 255.14321899 C44.10785691 249.36420282 46.46047344 243.58364894 48.80606079 237.80020142 C60.84192452 208.12594456 72.98299828 178.49645683 85.32054138 148.94625854 C85.61998154 148.22903625 85.91942169 147.51181396 86.22793579 146.77285767 C86.52435471 146.06288635 86.82077362 145.35291504 87.12617493 144.62142944 C92.04784352 132.82744989 96.9216319 121.01359194 101.80215454 109.20254517 C99.955784 109.21040039 99.955784 109.21040039 98.07211304 109.21841431 C62.16649231 109.35582754 26.28244455 108.9349386 -9.61599398 108.31178093 C-16.79706236 108.18730787 -23.97821506 108.06804365 -31.15937567 107.94902992 C-45.83895908 107.70563726 -60.51843731 107.45629616 -75.19784546 107.20254517 C-73.99744342 104.15904503 -72.77035819 101.26225063 -71.16659546 98.40957642 C-70.57757446 97.35613037 -70.57757446 97.35613037 -69.97665405 96.28140259 C-69.55464722 95.53350464 -69.13264038 94.78560669 -68.69784546 94.01504517 C-67.78372587 92.38226462 -66.86966487 90.74945129 -65.95565796 89.11660767 C-65.49191772 88.29064087 -65.02817749 87.46467407 -64.55038452 86.61367798 C-62.54822441 83.04448425 -60.5596183 79.46782103 -58.57284546 75.89004517 C-58.17355835 75.17115112 -57.77427124 74.45225708 -57.36288452 73.71157837 C-55.97367551 71.20904477 -54.5855709 68.70590177 -53.19784546 66.20254517 C-52.61228882 65.14631958 -52.02673218 64.09009399 -51.4234314 63.00186157 C-49.42970397 59.40311769 -47.43781912 55.80336575 -45.44784546 52.20254517 C-45.10785522 51.58740051 -44.76786499 50.97225586 -44.41757202 50.33847046 C-38.82829694 40.21914609 -33.32078547 30.05847509 -27.89022827 19.85293579 C-27.36010132 18.8610022 -26.82997437 17.8690686 -26.28378296 16.84707642 C-25.83051636 15.9947644 -25.37724976 15.14245239 -24.9102478 14.26431274 C-24.34515503 13.25392944 -23.78006226 12.24354614 -23.19784546 11.20254517 C-22.9090575 10.39595132 -22.62026953 9.58935748 -22.32273042 8.7583214 C-17.8920037 -1.47361002 -9.68566834 -0.1737561 0 0 Z " fill="#22304B" transform="translate(209.19784545898438,298.7974548339844)"/>
<path d="M0 0 C1.56720039 -0.00153328 1.56720039 -0.00153328 3.1660614 -0.00309753 C6.5974432 0.00175446 10.02611808 0.0560867 13.45703125 0.11108398 C15.84454902 0.12414857 18.23208562 0.13410867 20.61962891 0.14109802 C26.88694569 0.16775512 33.153117 0.23645997 39.41998291 0.31402588 C45.82149766 0.38578423 52.22319851 0.41763658 58.625 0.45288086 C71.17366424 0.52783091 83.72153666 0.64586264 96.26953125 0.79467773 C95.80257644 2.21295561 95.33408904 3.63072893 94.86497498 5.04829407 C94.60425422 5.8378716 94.34353346 6.62744913 94.07491207 7.44095325 C92.88469903 10.91934945 91.51491134 14.31346027 90.1171875 17.71264648 C89.82125702 18.43922958 89.52532654 19.16581268 89.22042847 19.91441345 C88.58809512 21.46624334 87.95452197 23.01756855 87.3197937 24.56842041 C85.62265551 28.71565209 83.93517674 32.86681671 82.24609375 37.01733398 C81.90595749 37.85238464 81.56582123 38.6874353 81.21537781 39.54779053 C78.18386941 46.99371575 75.18771475 54.45326333 72.20703125 61.91967773 C71.72443848 63.12785156 71.2418457 64.33602539 70.74462891 65.58081055 C69.25222636 69.31848604 67.7607376 73.05652491 66.26953125 76.79467773 C53.99664681 107.55864394 41.59981195 138.27207971 29.14453125 168.96264648 C28.82219513 169.75695572 28.49985901 170.55126495 28.16775513 171.36964417 C25.54205081 177.83985859 25.54205081 177.83985859 24.40667725 180.63650513 C20.47640044 190.31904919 16.57719384 200.01332134 12.70907593 209.72085571 C-12.4534206 272.834887 -12.4534206 272.834887 -32.73046875 294.79467773 C-33.18615234 295.29418945 -33.64183594 295.79370117 -34.11132812 296.30834961 C-53.72743478 317.58449349 -79.05350594 331.58302078 -105.74462891 342.01733398 C-107.57173639 342.73254301 -109.39171682 343.46588908 -111.2109375 344.20092773 C-121.13129729 348.01555612 -131.29762534 349.91592626 -141.73046875 351.79467773 C-141.13842575 346.29241938 -139.19132854 341.83753576 -136.93359375 336.85717773 C-136.54878342 335.99321884 -136.16397308 335.12925995 -135.76750183 334.23912048 C-134.94127298 332.38608123 -134.11192387 330.53443065 -133.27975464 328.68405151 C-131.52112746 324.77318685 -129.77796527 320.85549254 -128.03367615 316.93821716 C-127.15717098 314.97038042 -126.27986188 313.00290157 -125.40174866 311.03578186 C-121.9434913 303.28782626 -118.53389483 295.52069734 -115.16796875 287.73217773 C-114.6687793 286.57782227 -114.16958984 285.4234668 -113.65527344 284.23413086 C-108.20388776 271.6044592 -102.79605494 258.95600724 -97.38256836 246.31005859 C-92.52131259 234.95664405 -87.62974638 223.61715775 -82.70751953 212.29003906 C-78.36720017 202.29076224 -74.07602265 192.27075345 -69.78890991 182.24856567 C-61.2772145 162.35179997 -52.71807369 142.48237475 -43.73046875 122.79467773 C-44.15755127 123.20194092 -44.58463379 123.6092041 -45.0246582 124.02880859 C-52.51911148 131.15915073 -59.99502843 138.17603365 -68.08984375 144.62280273 C-71.07141277 147.07509915 -73.90623606 149.66537531 -76.73046875 152.29467773 C-81.34037736 156.58436114 -86.10831229 160.59879571 -91.015625 164.54858398 C-93.8372037 166.88298363 -96.53637587 169.31458372 -99.23046875 171.79467773 C-103.60217338 175.81442309 -108.10833761 179.59455968 -112.7265625 183.32592773 C-118.19349345 187.81890609 -123.49722666 192.50213836 -128.83398438 197.14819336 C-131.80902149 199.73105257 -134.79999698 202.29514335 -137.79296875 204.85717773 C-138.36345947 205.34589355 -138.9339502 205.83460938 -139.52172852 206.33813477 C-142.46749635 208.86070075 -145.41614495 211.37984736 -148.3671875 213.89624023 C-153.60536048 218.36778257 -158.8234449 222.84640248 -163.91796875 227.48217773 C-168.24000141 231.41129833 -172.7253034 235.1024973 -177.28515625 238.75170898 C-179.76372439 240.75041281 -179.76372439 240.75041281 -181.92578125 243.05639648 C-183.73046875 244.79467773 -183.73046875 244.79467773 -185.73046875 244.79467773 C-188.73622836 235.96332217 -191.69458865 227.13069081 -194.29296875 218.16967773 C-197.64551911 206.62097159 -201.20361313 195.19054877 -205.23046875 183.85717773 C-207.92776435 176.25998827 -210.33116736 168.62527885 -212.55078125 160.87670898 C-213.71634301 156.80887904 -214.96119981 152.76869942 -216.23046875 148.73217773 C-216.43470459 148.08079834 -216.63894043 147.42941895 -216.84936523 146.75830078 C-217.91910961 143.35341869 -218.99918954 139.95198098 -220.0859375 136.55249023 C-222.2717177 129.6843677 -224.33922319 122.87738238 -225.73046875 115.79467773 C-226.39046875 115.79467773 -227.05046875 115.79467773 -227.73046875 115.79467773 C-228.11589844 117.00381836 -228.50132812 118.21295898 -228.8984375 119.45874023 C-231.01534074 125.80080953 -233.53859959 131.97274401 -236.04296875 138.16967773 C-236.57490517 139.49150539 -237.10655457 140.81344858 -237.63793945 142.13549805 C-238.47587579 144.21993626 -239.3140803 146.30426374 -240.15330505 148.38818359 C-242.12250407 153.27808784 -244.08201683 158.17177586 -246.03515625 163.06811523 C-252.25204457 178.65094853 -258.49737691 194.22234382 -264.7772522 209.77990723 C-265.53214247 211.65090577 -266.28620385 213.52223899 -267.03939819 215.3939209 C-268.09414227 218.01417431 -269.1521189 220.63309986 -270.2109375 223.25170898 C-270.52285034 224.02829361 -270.83476318 224.80487823 -271.15612793 225.60499573 C-271.99595569 227.67644206 -272.85925233 229.73628052 -273.73046875 231.79467773 C-274.19686768 232.92897217 -274.6632666 234.0632666 -275.14379883 235.23193359 C-276.73046875 237.79467773 -276.73046875 237.79467773 -278.95898438 238.86791992 C-279.84263672 239.02421875 -280.72628906 239.18051758 -281.63671875 239.34155273 C-282.66861328 239.54135742 -283.70050781 239.74116211 -284.76367188 239.94702148 C-285.90771484 240.14424805 -287.05175781 240.34147461 -288.23046875 240.54467773 C-290.77322199 241.03455356 -293.31464302 241.52944784 -295.85546875 242.02905273 C-296.5450769 242.16202759 -297.23468506 242.29500244 -297.94519043 242.43200684 C-306.49698291 244.09833992 -314.96332479 246.13019548 -323.44070435 248.13543701 C-337.03271601 251.34732386 -350.63623557 254.49426935 -364.29296875 257.41967773 C-365.44539063 257.66717773 -366.5978125 257.91467773 -367.78515625 258.16967773 C-375.46089154 259.79467773 -375.46089154 259.79467773 -377.73046875 259.79467773 C-377.1783392 253.69057879 -374.61075893 248.6120439 -372.10546875 243.10717773 C-371.08952333 240.83576733 -370.07529334 238.56358912 -369.0625 236.29077148 C-368.79342331 235.68839661 -368.52434662 235.08602173 -368.24711609 234.46539307 C-365.02149473 227.23208458 -361.906277 219.9518599 -358.79296875 212.66967773 C-358.48317078 211.94572815 -358.1733728 211.22177856 -357.85418701 210.47589111 C-347.76864444 186.90569738 -337.74781486 163.30773892 -327.72070312 139.71264648 C-325.14421045 133.64991991 -322.5662733 127.5878091 -319.98754883 121.52603149 C-318.99791207 119.19893024 -318.0088002 116.8716057 -317.02026367 114.54403687 C-315.6281464 111.26632836 -314.23417172 107.98941507 -312.83984375 104.71264648 C-312.44154358 103.77360474 -312.04324341 102.83456299 -311.63287354 101.86706543 C-307.76802897 92.79386867 -303.73770871 83.81096764 -299.73046875 74.79467773 C-263.43046875 74.46467773 -227.13046875 74.13467773 -189.73046875 73.79467773 C-186.10046875 66.20467773 -182.47046875 58.61467773 -178.73046875 50.79467773 C-175.51258343 44.28255811 -172.29274033 37.77363953 -169.03833008 31.2800293 C-167.63382907 28.47653218 -166.23377185 25.67084334 -164.83398438 22.86499023 C-163.9338511 21.06538232 -163.03347061 19.26589804 -162.1328125 17.46655273 C-161.7182933 16.63549011 -161.30377411 15.80442749 -160.87669373 14.94818115 C-160.4919136 14.18177307 -160.10713348 13.41536499 -159.71069336 12.62573242 C-159.37525009 11.95564148 -159.03980682 11.28555054 -158.69419861 10.59515381 C-157.73046875 8.79467773 -157.73046875 8.79467773 -155.73046875 5.79467773 C-155.07046875 5.79467773 -154.41046875 5.79467773 -153.73046875 5.79467773 C-150.67245835 19.44920218 -147.64673181 33.1091132 -144.73046875 46.79467773 C-142.05942247 59.32141433 -139.29698407 71.82623594 -136.50244141 84.32592773 C-135.67979191 88.02238694 -134.86639582 91.72080123 -134.0546875 95.41967773 C-133.64379883 97.28644165 -133.64379883 97.28644165 -133.22460938 99.19091797 C-132.69654384 101.59102696 -132.17042608 103.99156553 -131.64648438 106.39257812 C-131.40994141 107.46499756 -131.17339844 108.53741699 -130.9296875 109.64233398 C-130.61777466 111.06557983 -130.61777466 111.06557983 -130.29956055 112.51757812 C-129.81505362 114.80634494 -129.81505362 114.80634494 -128.73046875 116.79467773 C-127.84621216 115.90820053 -126.96195557 115.02172333 -126.05090332 114.10838318 C-117.69726814 105.73443301 -109.34096083 97.36315748 -100.98206329 88.99446011 C-96.68527321 84.6924624 -92.38941382 80.389544 -88.09570312 76.08447266 C-83.94821121 71.92607635 -79.79824638 67.77016256 -75.64659119 63.61592293 C-74.06697677 62.03446785 -72.48823941 60.4521362 -70.91041565 58.86889458 C-68.69197654 56.64314473 -66.47037457 54.42059683 -64.24804688 52.19873047 C-63.60355591 51.55064423 -62.95906494 50.90255798 -62.29504395 50.23483276 C-58.51295727 46.46117501 -54.61860992 42.87806905 -50.561409 39.40132236 C-47.45494101 36.67540593 -44.56861258 33.73613106 -41.66796875 30.79467773 C-41.03238037 30.15530273 -40.39679199 29.51592773 -39.74194336 28.85717773 C-37.73563225 26.83879377 -35.73262874 24.81717897 -33.73046875 22.79467773 C-31.0876446 20.12500341 -28.44135051 17.45883766 -25.79296875 14.79467773 C-25.20314209 14.19655273 -24.61331543 13.59842773 -24.00561523 12.98217773 C-22.88490536 11.85502067 -21.75409564 10.73777199 -20.6111908 9.63312626 C-19.3847204 8.43422359 -18.1833076 7.20897347 -17.01248169 5.95567226 C-11.57573611 0.53713017 -7.5116251 -0.19453695 0 0 Z " fill="#2D9DF5" transform="translate(767.73046875,333.205322265625)"/>
<path d="M0 0 C131.34 0 262.68 0 398 0 C396.6758717 3.97238489 395.59300286 7.04139481 393.6796875 10.6171875 C393.23133545 11.46224854 392.7829834 12.30730957 392.32104492 13.17797852 C391.8438501 14.06799561 391.36665527 14.9580127 390.875 15.875 C389.86738082 17.7767567 388.86087714 19.67910484 387.85546875 21.58203125 C387.11756104 22.97736084 387.11756104 22.97736084 386.36474609 24.40087891 C384.59689709 27.76769831 382.87899663 31.1568052 381.1875 34.5625 C380.74144409 35.45956665 380.74144409 35.45956665 380.28637695 36.37475586 C379.61259945 37.73167599 378.93938477 39.08887567 378.26660156 40.44628906 C375.69466962 45.63179563 373.11477798 50.81332108 370.53140259 55.99313354 C369.57228042 57.91787292 368.61558146 59.84380434 367.65893555 61.76977539 C366.77782104 63.53695923 366.77782104 63.53695923 365.87890625 65.33984375 C365.3485376 66.40581787 364.81816895 67.47179199 364.27172852 68.57006836 C363 71 363 71 362 72 C360.2410657 72.09632045 358.47822841 72.1218751 356.71665955 72.12025452 C355.57095993 72.12162918 354.42526031 72.12300385 353.24484253 72.12442017 C351.97673737 72.12082489 350.7086322 72.11722961 349.40209961 72.11352539 C348.06206769 72.11324352 346.72203561 72.11340125 345.38200378 72.1139679 C341.73340562 72.11425587 338.08484005 72.1083592 334.43624949 72.10139394 C330.62722484 72.09516034 326.8181995 72.0945566 323.00917053 72.09336853 C315.79142246 72.09025523 308.57368946 72.08204186 301.35594803 72.07201904 C293.14084743 72.06085786 284.92574612 72.05534744 276.71063983 72.05032361 C259.80708449 72.03985925 242.90354384 72.02225983 226 72 C225.79509288 72.61927022 225.59018576 73.23854044 225.37906933 73.87657642 C225.10969712 74.68823104 224.84032492 75.49988565 224.56278992 76.33613586 C224.2960078 77.14103108 224.02922567 77.9459263 223.75435925 78.77521229 C222.94747732 81.15490207 222.0563347 83.47688198 221.08203125 85.79296875 C220.72359131 86.64947021 220.36515137 87.50597168 219.99584961 88.38842773 C219.41009155 89.77396851 219.41009155 89.77396851 218.8125 91.1875 C218.38525635 92.20593994 217.9580127 93.22437988 217.51782227 94.27368164 C216.01582012 97.85078731 214.50837145 101.42557748 213 105 C210.47843766 110.97885932 207.95769248 116.95806315 205.4375 122.9375 C205.09965485 123.73893433 204.76180969 124.54036865 204.41372681 125.36608887 C192.79137726 152.9435237 181.37194335 180.60473786 170.03491211 208.30053711 C166.92917335 215.88408312 163.8136507 223.46329711 160.66650391 231.0297699 C159.91407463 232.83892268 159.16276684 234.64854232 158.41259766 236.45863342 C156.57472122 240.88911744 154.71935815 245.31044164 152.82373047 249.71655273 C149.7629885 256.88358069 146.86532205 263.78936862 145.16015625 271.41015625 C142.45725746 282.89878649 142.45725746 282.89878649 138 287 C129.377133 291.20967133 119.78005995 292.49290381 110.36616516 293.86634827 C102.21397174 295.05673818 94.24241112 296.85650398 86.22232056 298.72219849 C82.62132068 299.55404201 79.01186927 300.34675438 75.40234375 301.140625 C70.99189302 302.1144838 66.58241813 303.0924734 62.17480469 304.07910156 C61.37015274 304.25890564 60.56550079 304.43870972 59.73646545 304.6239624 C58.19755817 304.96799533 56.65883808 305.31286718 55.12034607 305.65875244 C49.43919467 306.92758454 43.7385339 308.02189914 38 309 C39.87828428 303.14440727 41.96130013 297.43760603 44.34375 291.76953125 C44.66515961 290.99736771 44.98656921 290.22520416 45.31771851 289.42964172 C46.01232877 287.76186399 46.7083661 286.09468002 47.40570068 284.42803955 C48.52481554 281.75318714 49.64012065 279.07677475 50.75439453 276.39990234 C51.93815855 273.55610991 53.12211768 270.71240089 54.30715942 267.86914062 C58.85206437 256.96364035 63.36534213 246.04511316 67.875 235.125 C68.28186035 234.14012604 68.6887207 233.15525208 69.10791016 232.14053345 C73.59779315 221.27076761 78.07612117 210.39682269 82.5 199.5 C87.328765 187.60586864 92.22318586 175.73917789 97.125 163.875 C97.73492798 162.39874649 97.73492798 162.39874649 98.35717773 160.89266968 C102.76940136 150.21558147 107.18824154 139.54125646 111.6171875 128.87109375 C111.9890921 127.97493347 112.3609967 127.07877319 112.74417114 126.15545654 C114.47932607 121.97466703 116.21540578 117.7942674 117.95361328 113.61474609 C123.70353416 99.76963801 129.34319982 85.88487316 135 72 C77.91 72 20.82 72 -38 72 C-37.14501102 67.7250551 -36.45288733 65.64636155 -34.3671875 62.02734375 C-33.81562988 61.05901611 -33.26407227 60.09068848 -32.69580078 59.09301758 C-32.09493652 58.05169678 -31.49407227 57.01037598 -30.875 55.9375 C-29.5966127 53.69143761 -28.32066132 51.44398739 -27.046875 49.1953125 C-26.71636139 48.6123793 -26.38584778 48.02944611 -26.0453186 47.42884827 C-21.66148256 39.67072082 -17.49883551 31.79350953 -13.32763672 23.91967773 C-9.0351625 15.84340955 -4.54384024 7.95172042 0 0 Z " fill="#2D9DF5" transform="translate(204,317)"/>
<path d="M0 0 C149.82 0 299.64 0 454 0 C456.46650094 9.86600375 458.84202364 19.65060884 460.89367676 29.59667969 C463.33944633 41.44130434 465.95184619 53.2338455 468.75 65 C475 91.35593801 475 91.35593801 475 99 C480.32731312 94.43992908 485.41868898 89.72309989 490.36230469 84.7512207 C491.39317451 83.72056992 491.39317451 83.72056992 492.44487 82.6690979 C494.68958694 80.4236909 496.93075132 78.17477417 499.171875 75.92578125 C500.74247653 74.35331152 502.31330131 72.78106474 503.88433838 71.20903015 C508.00146865 67.08809974 512.11558782 62.96417613 516.22906494 58.83959961 C520.41782042 54.64060119 524.60941703 50.44444102 528.80078125 46.24804688 C535.56423466 39.4758199 542.32593361 32.7018471 549.08543396 25.92567444 C549.67677628 25.33288696 550.26811859 24.74009949 550.87738037 24.12934875 C551.38688107 23.61854924 551.89638176 23.10774973 552.42132187 22.58147144 C553.20276754 21.79864308 553.20276754 21.79864308 554 21 C554.58058922 20.28537818 555.16117844 19.57075636 555.75936127 18.83447933 C558.88162236 16.27818886 560.96810897 16.50723786 564.97283936 16.51898193 C565.67454451 16.51556423 566.37624966 16.51214653 567.09921861 16.50862527 C569.4503505 16.50203691 571.80034051 16.5240366 574.15136719 16.54589844 C575.83666456 16.54702672 577.5219639 16.54639344 579.20726013 16.54412842 C583.78349551 16.54297957 588.35931251 16.56651639 592.93545055 16.59442425 C597.71738254 16.61940952 602.49932385 16.62177763 607.28131104 16.62652588 C616.33713329 16.63896411 625.39276265 16.6717972 634.44849992 16.71192384 C644.7579219 16.75661517 655.06735303 16.77862195 665.37684774 16.79870558 C686.58467287 16.84052907 707.79232429 16.91089762 729 17 C728.24297239 21.02045915 727.11032826 24.6588042 725.6875 28.5 C724.04079094 32.94663392 722.57629229 37.39119011 721.2265625 41.9375 C718.78043629 49.95322332 715.75451119 57.70676447 712.6875 65.5 C712.06873098 67.08166009 711.45008139 68.66336691 710.83154297 70.24511719 C705.58639287 83.62724548 700.19197872 96.94803142 694.77088928 110.2596283 C690.68139517 120.30278098 686.6433861 130.36571163 682.625 140.4375 C675.896724 157.2960133 669.11427126 174.13248288 662.32125473 190.96498108 C654.96343939 209.19719683 647.60838188 227.43038297 640.3125 245.6875 C639.99689117 246.47724213 639.68128235 247.26698425 639.35610962 248.08065796 C637.23606441 253.38656984 635.11780946 258.69319543 633 264 C629.14742267 273.65321363 625.29277845 283.30556058 621.42222595 292.95158386 C619.84115078 296.89378542 618.26918151 300.83944933 616.70440674 304.78814697 C594.67662983 360.31297904 556.42803764 397.32226611 502 421 C488.52405984 426.63555497 474.97722097 431.1712417 460.7265625 434.36206055 C457.37545914 435.14612511 454.05060324 436.02061134 450.71875 436.8828125 C440.89813451 439.37940542 430.95809342 441.20939615 421 443.0625 C419.18481415 443.40386282 417.3697096 443.7456582 415.5546875 444.08789062 C412.03350259 444.75147711 408.51127573 445.40908398 404.98828125 446.06298828 C401.73098786 446.66966943 398.47929552 447.29827179 395.23046875 447.94873047 C394.49223877 448.09426865 393.75400879 448.23980682 392.9934082 448.38975525 C391.01281885 448.78134506 389.03369259 449.18031474 387.0546875 449.57983398 C384 450 384 450 381 449 C381.40089844 448.16082031 381.80179688 447.32164062 382.21484375 446.45703125 C386.97341522 436.41970903 391.3712937 426.24538572 395.71386719 416.02246094 C398.06842752 410.48915477 400.44207623 404.964024 402.8125 399.4375 C403.83860012 397.0429938 404.86464123 394.64846231 405.890625 392.25390625 C407.94106015 387.46934317 409.99325257 382.68553961 412.046875 377.90234375 C417.0542329 366.23629104 422.04673431 354.5641374 427 342.875 C427.44480713 341.82683105 427.88961426 340.77866211 428.34790039 339.69873047 C430.66474171 334.22175479 432.92865385 328.7282517 435.12451172 323.20166016 C440.5837239 309.47294418 440.5837239 309.47294418 444 303 C443.67 302.67 443.34 302.34 443 302 C442.17757812 302.70125 441.35515625 303.4025 440.5078125 304.125 C434.65786337 309.1014672 428.78230036 314.02694561 422.76171875 318.796875 C419.99502258 321.00397067 417.25336746 323.2392682 414.51391602 325.47998047 C407.80470967 330.96023655 401.05368809 336.3874668 394.25 341.75 C393.1062793 342.66289795 393.1062793 342.66289795 391.93945312 343.59423828 C391.22208984 344.1561084 390.50472656 344.71797852 389.765625 345.296875 C389.13430664 345.79541992 388.50298828 346.29396484 387.85253906 346.80761719 C385.89794278 348.06568891 384.27173828 348.57381335 382 349 C379.81082524 343.84146585 377.85073024 338.67955782 376.2578125 333.3046875 C373.60024075 324.56550776 370.60326576 315.94655755 367.625 307.3125 C366.51187144 304.07982157 365.40021648 300.84663886 364.2890625 297.61328125 C364.01749329 296.82462677 363.74592407 296.03597229 363.46612549 295.22341919 C362.04828863 291.09587411 360.65129053 286.96251589 359.28417969 282.81787109 C359.00923676 281.98499069 358.73429382 281.15211029 358.45101929 280.29399109 C357.9259731 278.69871833 357.40358602 277.10256732 356.88418579 275.50544739 C355.94098369 271.97621891 355.94098369 271.97621891 354 269 C352.12033347 273.49806664 350.24645773 277.99851434 348.375 282.5 C348.09955353 283.16150055 347.82410706 283.8230011 347.54031372 284.50454712 C343.85401683 293.36600132 340.31291077 302.24822453 337.18359375 311.32421875 C336 314 336 314 333 316 C330.44910775 316.66105105 327.9299647 317.24194335 325.3515625 317.76953125 C324.59070343 317.93087051 323.82984436 318.09220978 323.04592896 318.25843811 C321.41706139 318.60331623 319.78759257 318.9453645 318.15759277 319.28485107 C313.9329968 320.16501766 309.71277047 321.0656654 305.4921875 321.96484375 C304.66416626 322.14074036 303.83614502 322.31663696 302.98303223 322.49786377 C295.01323787 324.19675223 287.08761844 326.05829703 279.171875 327.9921875 C271.94014548 329.75661849 264.65962198 331.29531029 257.37109375 332.8046875 C255.74150365 333.1443739 254.11194746 333.48422298 252.48242188 333.82421875 C249.97126181 334.34773219 247.45993397 334.87035788 244.94799805 335.39013672 C235.80536896 337.28345779 226.71563825 339.27568291 217.67059326 341.59255981 C211.22163515 343.22994059 204.72089961 344.50271462 198.1875 345.75 C186.78120219 347.97673615 175.44665195 350.44007876 164.125 353.0625 C148.96271455 356.56929264 133.7670107 359.82643818 118.51171875 362.90625 C113.42371666 363.93375733 108.33654379 364.96529809 103.25 366 C102.39642914 366.17348969 101.54285828 366.34697937 100.66342163 366.52572632 C90.4572421 368.60544077 80.31262942 370.79259716 70.23095703 373.42016602 C64.46465886 374.91700145 58.67917613 376.07128417 52.8125 377.1171875 C46.06404433 378.33130698 39.34708468 379.71147784 32.625 381.0625 C31.34061035 381.32023193 30.0562207 381.57796387 28.73291016 381.84350586 C27.49331543 382.09237549 26.2537207 382.34124512 24.9765625 382.59765625 C23.78579102 382.83500488 22.59501953 383.07235352 21.36816406 383.31689453 C19.23148804 383.75023894 17.09754812 384.19749309 14.96777344 384.66357422 C14.07864258 384.85580566 13.18951172 385.04803711 12.2734375 385.24609375 C11.51208496 385.41681396 10.75073242 385.58753418 9.96630859 385.76342773 C8 386 8 386 5 385 C5.33040283 384.2421521 5.33040283 384.2421521 5.66748047 383.46899414 C11.13383379 370.89919196 16.34287759 358.24475293 21.40625 345.5078125 C24.03072107 338.90885835 26.69534782 332.3267183 29.375 325.75 C29.82625244 324.64213135 30.27750488 323.5342627 30.74243164 322.39282227 C33.19255385 316.39026013 35.66145334 310.39588637 38.15234375 304.41015625 C39.20590158 301.87767583 40.25936832 299.34515766 41.3125 296.8125 C41.57125916 296.19024536 41.83001831 295.56799072 42.09661865 294.92687988 C44.84041014 288.32109532 47.53984 281.71674182 50 275 C53.86884944 264.43724684 58.30695912 254.09875115 62.62841797 243.71539307 C65.40780141 237.03101852 68.1457572 230.33000797 70.875 223.625 C71.33302002 222.49980957 71.79104004 221.37461914 72.26293945 220.21533203 C75.11583653 213.19692259 77.93956003 206.16750496 80.7421875 199.12890625 C82.36163225 195.1004117 84.03968527 191.09767358 85.71875 187.09375 C87.17623338 183.57446086 88.59151517 180.03908626 90 176.5 C91.79710059 171.98444268 93.62045416 167.48199392 95.5 163 C98.42040752 156.03449728 101.2076865 149.01763245 104 142 C104.66643359 140.33324012 105.33305773 138.6665564 106 137 C105.11470155 137.0031605 105.11470155 137.0031605 104.21151829 137.00638485 C88.09325806 137.05557172 71.98651986 136.88667517 55.87109375 136.59765625 C53.42049898 136.55507567 50.96990179 136.51263411 48.51930237 136.47032166 C43.41233941 136.38168704 38.30540449 136.29161772 33.19848633 136.20043945 C26.77842517 136.08589642 20.35831259 135.97461707 13.93817711 135.86432838 C-14.71164581 135.3709369 -43.35721042 134.80912021 -72 134 C-70.5253547 130.23805756 -68.86059745 126.72089949 -66.9453125 123.16015625 C-66.33695557 122.02650635 -65.72859863 120.89285645 -65.10180664 119.72485352 C-64.44300006 118.50399941 -63.78406124 117.28321665 -63.125 116.0625 C-62.44183474 114.79296333 -61.75881233 113.52334978 -61.07592773 112.25366211 C-53.88886167 98.90153084 -46.65057938 85.57758648 -39.296875 72.31640625 C-37.96828357 69.91952902 -36.64020013 67.52237106 -35.3125 65.125 C-34.81340622 64.22406616 -34.81340622 64.22406616 -34.30422974 63.30493164 C-28.04137734 51.98866509 -21.95295313 40.58335854 -15.93481445 29.13525391 C-11.98827295 21.64339234 -7.90886018 14.25103914 -3.6640625 6.92358398 C-2.3724244 4.65431077 -1.16772684 2.33545369 0 0 Z M9 15 C-1.78713 34.05878939 -1.78713 34.05878939 -12.1875 53.3125 C-13.54595029 55.87748645 -14.90732025 58.44091536 -16.26953125 61.00390625 C-16.59473755 61.61608002 -16.91994385 62.22825378 -17.25500488 62.85897827 C-21.02010966 69.93522281 -24.91156425 76.93813671 -28.83789062 83.92578125 C-30.08106511 86.14469099 -31.31500028 88.36854816 -32.546875 90.59375 C-37.12645075 98.86533323 -41.7523447 107.1031282 -46.50390625 115.27734375 C-48.09008158 117.97070282 -48.09008158 117.97070282 -49 121 C-33.60019141 121.26620397 -18.20029854 121.52707801 -2.80030441 121.78230286 C4.35696782 121.90103335 11.51420784 122.02126701 18.67138672 122.14550781 C26.97355384 122.28940357 35.27578373 122.42901003 43.578125 122.5625 C44.25943544 122.57345451 44.94074589 122.58440903 45.6427021 122.5956955 C73.09539752 123.03366604 100.54408308 123.11680884 128 123 C127.58328537 123.99919464 127.16657074 124.99838928 126.73722839 126.02786255 C106.39353774 174.75417836 106.39353774 174.75417836 86.37304688 223.61376953 C84.85968966 227.34603563 83.34415972 231.07741467 81.828125 234.80859375 C81.27652862 236.16617785 80.72493358 237.52376249 80.17333984 238.88134766 C79.89754089 239.56013977 79.62174194 240.23893188 79.33758545 240.93829346 C78.50173235 242.99573583 77.66611423 245.05327348 76.83056641 247.11083984 C73.4349187 255.47226414 70.03247686 263.83088775 66.625 272.1875 C61.73576505 284.18143247 56.86293131 296.18199073 52.00219727 308.1875 C51.36215599 309.76823486 50.72210045 311.34896395 50.08203125 312.9296875 C49.7587233 313.72816101 49.43541534 314.52663452 49.10231018 315.3493042 C46.8972087 320.79254522 44.68453805 326.23266571 42.46820068 331.67134094 C40.88356863 335.56103264 39.30163444 339.45181862 37.72003174 343.34274292 C36.95055639 345.23381025 36.17985192 347.12437793 35.40789795 349.01443481 C34.33257668 351.64767407 33.26152304 354.28261104 32.19140625 356.91796875 C31.86718185 357.70885895 31.54295746 358.49974915 31.20890808 359.31460571 C29.58043783 363.03694737 29.58043783 363.03694737 29 367 C43.07232378 364.38589173 57.08483271 361.59668088 71.04638672 358.44287109 C80.9914232 356.20386231 90.96034973 354.09053277 100.9375 352 C102.58374852 351.65466188 104.22998877 351.30928438 105.8762207 350.96386719 C108.30318 350.45470092 110.73014658 349.94556961 113.15715027 349.43661499 C130.92512568 345.70955324 148.65948168 341.86259924 166.35864258 337.82055664 C179.68090164 334.79533074 193.05748424 332.02998089 206.43969727 329.28393555 C216.15889166 327.28054645 225.82438073 325.12496241 235.47076416 322.79559326 C243.24422283 320.92353259 251.04582494 319.24784453 258.875 317.625 C271.40965456 315.00119748 283.9290062 312.31319943 296.40136719 309.40576172 C301.76664735 308.15917656 307.10025994 306.93878643 312.5390625 306.05859375 C313.72918945 305.84626099 313.72918945 305.84626099 314.94335938 305.62963867 C316.91745442 305.28611609 318.89993893 304.99169288 320.8828125 304.703125 C325.97306023 301.92198714 327.00680023 297.24857793 329 292 C329.97881999 289.63549505 330.9607525 287.27227687 331.9453125 284.91015625 C333.0115151 282.29681513 334.06802422 279.67958401 335.125 277.0625 C335.69251451 275.66217816 336.26006059 274.26186913 336.82763672 272.86157227 C341.1206835 262.25248317 345.3297345 251.61134567 349.48486328 240.94750977 C351.57359016 235.59189227 353.68904008 230.26385316 356 225 C358.67151841 231.43721351 361.01435529 237.8849512 363.03125 244.5546875 C363.59450381 246.3882834 364.15782017 248.22186009 364.72119141 250.05541992 C365.01133118 251.00516693 365.30147095 251.95491394 365.60040283 252.93344116 C370.43515664 268.74242021 375.39403073 284.50500746 380.625 300.1875 C380.99322876 301.29674835 380.99322876 301.29674835 381.36889648 302.42840576 C384.01313932 310.38279008 386.74888858 318.26790832 390 326 C393.17593315 324.47999765 395.47044737 322.8357543 398.0625 320.4375 C402.27821448 316.61378507 406.62811681 313.0035812 411.046875 309.41796875 C414.2282561 306.81310777 417.36760829 304.16331859 420.5 301.5 C427.13751554 295.86192197 433.87059311 290.34634899 440.63671875 284.86328125 C446.43537095 280.14817282 452.13417894 275.3320422 457.79467773 270.453125 C462.23541443 266.63334653 466.74264294 262.90504162 471.3046875 259.23046875 C474.93440052 256.22674971 478.46621455 253.11555672 482 250 C475.84834633 265.01734386 469.45481185 279.92365718 463 294.8125 C456.2496366 310.38554047 449.62175073 326.00384886 443.10067749 341.67416382 C435.73155467 359.37045936 428.15056962 376.97292225 420.5222168 394.55883789 C416.5846906 403.6412056 412.65442148 412.72578624 408.85546875 421.8671875 C408.56110428 422.56973663 408.26673981 423.27228577 407.9634552 423.99612427 C406.49017647 427.38521619 406.49017647 427.38521619 406 431 C419.82142107 429.01719209 433.38297594 426.06019399 447 423 C448.0631543 422.76265137 449.12630859 422.52530273 450.22167969 422.28076172 C479.57481515 415.63521185 509.00147804 405.08120031 534 388 C534.55655273 387.62697754 535.11310547 387.25395508 535.68652344 386.86962891 C543.49281556 381.61745933 550.56263936 375.93069265 557.37890625 369.4453125 C560 367 560 367 562.6328125 364.90625 C566.23986344 362.00156212 569.03763368 358.54249639 572 355 C572.61875 354.28070312 573.2375 353.56140625 573.875 352.8203125 C577.97520185 347.90999013 581.57910407 342.77037719 585 337.375 C585.56811401 336.49038086 585.56811401 336.49038086 586.14770508 335.58789062 C594.108922 322.75916799 599.84536285 308.91764187 605.25 294.875 C606.44019062 291.80891497 607.63436736 288.7443852 608.828125 285.6796875 C609.14225342 284.87142517 609.45638184 284.06316284 609.7800293 283.23040771 C619.05348252 259.41531604 628.71858628 235.75009992 638.28643799 212.05212402 C645.75686184 193.54857476 653.197873 175.03366568 660.60046387 156.50286865 C662.75020115 151.1223378 664.90248228 145.74282528 667.0546875 140.36328125 C667.85483171 138.36296133 668.65496198 136.36263583 669.45507812 134.36230469 C684.07519531 97.81201173 684.07519531 97.81201173 685.04281616 95.39297485 C685.65857323 93.85357212 686.27431655 92.31416387 686.89004517 90.77474976 C688.31585521 87.21005368 689.74188143 83.64544447 691.16845703 80.08105469 C693.64631377 73.88932123 696.12197947 67.69674283 698.58935547 61.50082397 C699.7095278 58.68824317 700.83091676 55.87614818 701.95239258 53.06408691 C702.47695959 51.74769186 703.00090327 50.43104823 703.52416992 49.11413574 C704.23852 47.3163586 704.95514275 45.519485 705.671875 43.72265625 C706.0750293 42.70953369 706.47818359 41.69641113 706.89355469 40.65258789 C708 38 708 38 709.14550781 35.82983398 C710.21155854 33.88354868 710.21155854 33.88354868 710 31 C691.87701023 29.93490672 673.76239455 29.14897509 655.61459064 28.66845226 C647.1806971 28.4390593 638.76669591 28.12751048 630.34545898 27.60522461 C587.84268374 23.99915018 587.84268374 23.99915018 550.53271484 40.97119141 C540.46491476 49.91820354 531.84615816 60.32022899 523.84391785 71.11909485 C520.85275163 75.09190911 517.67752592 78.33510177 513.83425713 81.48330307 C510.50509293 84.23609767 507.51220665 87.34529268 504.46484375 90.40234375 C503.78249161 91.08373917 503.10013947 91.76513458 502.39710999 92.46717834 C500.96655563 93.89705741 499.53724233 95.32817911 498.10913086 96.76049805 C495.94300926 98.93197711 493.77159826 101.09806325 491.59960938 103.26367188 C490.20020013 104.66374202 488.80110116 106.06412238 487.40234375 107.46484375 C486.44424049 108.41991066 486.44424049 108.41991066 485.46678162 109.39427185 C481.67095736 113.2095732 478.06240216 117.13702902 474.55787659 121.22193909 C472.47584435 123.59823781 470.26746854 125.80124262 468 128 C464.35908771 115.5994811 461.86399709 102.97972478 459.29090881 90.32371521 C457.74077718 82.70682846 456.15480294 75.09753902 454.55822754 67.49026489 C454.08850207 65.2490637 453.62178711 63.00725233 453.15527344 60.76538086 C449.9453787 45.46628309 446.44469378 30.25507248 443 15 C299.78 15 156.56 15 9 15 Z " fill="#F9F9F9" transform="translate(183,285)"/>
<path d="M0 0 C2.64 0 5.28 0 8 0 C7.39914767 13.03849555 2.73259851 25.29712904 -1.75 37.4375 C-1.9783252 38.05929138 -2.20665039 38.68108276 -2.44189453 39.32171631 C-7.63835354 53.43843945 -13.39006182 67.32391674 -19.14404297 81.2202301 C-22.60144998 89.57215722 -25.98081506 97.94714876 -29.25 106.375 C-34.20611501 119.12354355 -39.37967257 131.77983634 -44.5625 144.4375 C-51.59592868 161.61625758 -58.55825641 178.82103541 -65.43444824 196.06332397 C-70.51776564 208.80986613 -75.64077587 221.53907681 -80.8125 234.25 C-85.28815948 245.25096136 -89.70745263 256.27164067 -94.04656982 267.32720947 C-95.6408528 271.38838489 -97.23979443 275.44772941 -98.83856201 279.50714111 C-99.98610936 282.42137545 -101.1315201 285.33639862 -102.27197266 288.25341797 C-112.28561329 313.8053242 -124.70518995 336.25119442 -144 356 C-144.8353125 356.8971875 -145.670625 357.794375 -146.53125 358.71875 C-180.86084702 394.70278544 -231.39568302 413.22391001 -279 423 C-280.1554834 423.23960449 -281.3109668 423.47920898 -282.50146484 423.72607422 C-322.09671405 431.9022832 -322.09671405 431.9022832 -340 434 C-338.69100294 431.18585648 -337.37721835 428.37397463 -336.0625 425.5625 C-335.50272461 424.35883789 -335.50272461 424.35883789 -334.93164062 423.13085938 C-334.57392578 422.36708984 -334.21621094 421.60332031 -333.84765625 420.81640625 C-333.51773682 420.10943604 -333.18781738 419.40246582 -332.84790039 418.67407227 C-332 417 -332 417 -331 416 C-328.83668639 415.556258 -326.66205776 415.16756533 -324.484375 414.80078125 C-323.08778366 414.56191709 -321.69121909 414.32289641 -320.29467773 414.08374023 C-319.55402069 413.95828827 -318.81336365 413.8328363 -318.05026245 413.70358276 C-295.46989274 409.86454545 -272.85185775 405.98980785 -251 399 C-249.43635609 398.54502896 -247.87254068 398.09064709 -246.30859375 397.63671875 C-220.76472568 389.98443835 -196.61861679 378.59261484 -175 363 C-174.39865234 362.5683252 -173.79730469 362.13665039 -173.17773438 361.69189453 C-154.706331 348.29855817 -139.20879017 332.26772454 -127 313 C-126.61102539 312.38737305 -126.22205078 311.77474609 -125.82128906 311.14355469 C-114.4408974 292.87373251 -107.29412329 272.11920928 -99.67456055 252.07592773 C-95.60972008 241.4158308 -91.29628572 230.86144708 -86.97998047 220.30102539 C-82.23315018 208.68396716 -77.54611891 197.04268606 -72.85477066 185.40314102 C-72.04312721 183.38943568 -71.23133362 181.37579092 -70.41952515 179.3621521 C-61.3350265 156.82697059 -52.29156808 134.27561767 -43.2809906 111.71076965 C-39.63423139 102.58113921 -35.97792396 93.45535034 -32.32058525 84.32995415 C-30.27461287 79.2244768 -28.22964753 74.118596 -26.18468189 69.01271534 C-24.50027979 64.80732519 -22.81526914 60.6021811 -21.1288147 56.39761353 C-19.53307722 52.41915522 -17.93905434 48.44001385 -16.34619713 44.46040154 C-15.75862736 42.9932691 -15.17046103 41.5263754 -14.58161354 40.05975533 C-11.55486386 32.52019748 -8.5776729 24.96515466 -5.71435547 17.36181641 C-5.46868395 16.71140066 -5.22301243 16.06098492 -4.96989632 15.3908596 C-3.07642395 10.32589253 -1.42886867 5.21411724 0 0 Z " fill="#D1D0D0" transform="translate(907,316)"/>
<path d="M0 0 C2.98072251 3.4292752 4.27118378 7.16625967 5.63671875 11.421875 C5.8772699 12.15060318 6.11782104 12.87933136 6.36566162 13.63014221 C7.14661845 16.00119106 7.91705523 18.37551692 8.6875 20.75 C9.22523695 22.38851324 9.76373434 24.0267771 10.30297852 25.66479492 C11.37666687 28.92889239 12.44674237 32.19413644 13.51367188 35.46044922 C15.46202924 41.41993826 17.44846661 47.36647112 19.4375 53.3125 C20.06135899 55.18614429 20.68506465 57.05983965 21.30859375 58.93359375 C22.39679329 62.19942407 23.49293424 65.46237909 24.59765625 68.72265625 C24.83750244 69.43317139 25.07734863 70.14368652 25.32446289 70.87573242 C25.94322689 72.70697869 26.56520171 74.53713924 27.1875 76.3671875 C28 79 28 79 28 81 C38.3479611 75.05181068 47.45877638 66.85053352 56.62109375 59.25146484 C61.11105879 55.53371726 65.64747291 51.88972128 70.25 48.3125 C76.99751635 43.06562194 83.51642225 37.56812242 90 32 C91.20596477 35.61789431 90.40700268 36.77497515 88.80493164 40.08837891 C88.4774292 40.73983887 88.14992676 41.39129883 87.8125 42.0625 C85.66307234 46.39654942 83.82817023 50.44047664 82.5625 55.125 C79.73370147 62.44588203 72.16136889 66.87019673 66.10302734 71.41699219 C63.5834489 73.31354973 61.10826256 75.26168472 58.63598633 77.21923828 C56.94038483 78.56021851 55.23632611 79.88984733 53.53125 81.21875 C50.98630459 83.21094709 48.47184809 85.23673477 45.96875 87.28125 C45.29593994 87.82837646 44.62312988 88.37550293 43.92993164 88.93920898 C42.63587878 89.99351085 41.34575374 91.05265892 40.06030273 92.11743164 C39.17773804 92.83467407 39.17773804 92.83467407 38.27734375 93.56640625 C37.76421631 93.98865479 37.25108887 94.41090332 36.72241211 94.84594727 C34.59621151 96.27054687 32.39425765 97.11549231 30 98 C25.83415244 88.22897261 22.66240273 78.12322721 19.35986328 68.03857422 C16.42390773 59.08776547 13.41163548 50.19072564 10.0305481 41.396698 C4 25.67581867 4 25.67581867 4 20 C3.34 20 2.68 20 2 20 C1.76216797 20.87180908 1.76216797 20.87180908 1.51953125 21.76123047 C-0.48218246 28.78519964 -3.13048012 35.41538733 -6 42.125 C-6.87633351 44.18953864 -7.75136181 46.25463185 -8.625 48.3203125 C-9.04193115 49.29033203 -9.4588623 50.26035156 -9.88842773 51.25976562 C-10.87347217 53.68808514 -11.64906173 56.09762668 -12.41015625 58.6015625 C-14 62 -14 62 -16.87109375 63.515625 C-18.04800781 63.75796875 -19.22492188 64.0003125 -20.4375 64.25 C-21.10378418 64.39727539 -21.77006836 64.54455078 -22.45654297 64.69628906 C-24.63190179 65.16704211 -26.81316919 65.58613151 -29 66 C-30.37929878 66.27931861 -31.75820583 66.56057844 -33.13671875 66.84375 C-35.43922873 67.31160809 -37.74256536 67.77289019 -40.04882812 68.22192383 C-49.20439813 70.00564072 -58.32066704 71.96707711 -67.4375 73.9375 C-68.24889435 74.11273193 -69.0602887 74.28796387 -69.89627075 74.46850586 C-79.97013247 76.64788732 -90.01579398 78.90906677 -100.02954102 81.35180664 C-106.24766722 82.85628428 -112.49540078 84.12197098 -118.77490234 85.34082031 C-126.77861693 86.91455826 -134.73298787 88.69733794 -142.6875 90.5 C-143.36636261 90.65368042 -144.04522522 90.80736084 -144.74465942 90.96569824 C-151.4698979 92.49009233 -158.18981386 94.03238591 -164.89111328 95.65917969 C-172.15991682 97.42142583 -179.46109867 98.87248436 -186.8125 100.25 C-197.46659014 102.25075326 -208.04856704 104.50445644 -218.625 106.875 C-219.77640976 107.13284775 -219.77640976 107.13284775 -220.95108032 107.39590454 C-224.82226855 108.26334655 -228.69298199 109.1328867 -232.56347656 110.00341797 C-253.05472275 114.60970638 -273.58443751 118.97123421 -294.16848755 123.14105225 C-306.88197965 125.71673854 -319.5660411 128.37276254 -332.19848633 131.32446289 C-333.17325928 131.5486792 -334.14803223 131.77289551 -335.15234375 132.00390625 C-336.3897229 132.29503296 -336.3897229 132.29503296 -337.65209961 132.59204102 C-340.14455448 133.02511704 -342.47520045 133.07154394 -345 133 C-344.39922992 130.97922793 -343.70692647 128.98612674 -343 127 C-342.73960937 126.09507812 -342.47921875 125.19015625 -342.2109375 124.2578125 C-341.10609799 121.0782362 -340.0000367 118.71554932 -338 116 C-335.31298828 114.93041992 -335.31298828 114.93041992 -332.1328125 114.35546875 C-330.97128662 114.12883545 -329.80976074 113.90220215 -328.61303711 113.66870117 C-327.42073486 113.44802979 -326.22843262 113.2273584 -325 113 C-322.79342622 112.5095605 -320.58892565 112.00968966 -318.38671875 111.5 C-307.6269965 109.08421258 -296.88367051 106.72635644 -286.03125 104.765625 C-278.05328557 103.28792511 -270.14370284 101.44583772 -262.22021484 99.70458984 C-256.50436861 98.45395055 -250.78360649 97.22631578 -245.0625 96 C-243.87954346 95.74629639 -242.69658691 95.49259277 -241.4777832 95.23120117 C-233.97023571 93.62497586 -226.45619774 92.05306711 -218.9375 90.5 C-209.38876749 88.52519358 -199.86960423 86.43116203 -190.35400391 84.30297852 C-182.18124931 82.47767165 -174.00079573 80.69177195 -165.8125 78.9375 C-164.65596924 78.68967773 -163.49943848 78.44185547 -162.30786133 78.18652344 C-156.63902135 76.97629925 -150.96724208 75.78284022 -145.2890625 74.6171875 C-144.21809326 74.39683838 -143.14712402 74.17648926 -142.04370117 73.94946289 C-140.05496541 73.54164936 -138.06559738 73.13689972 -136.07543945 72.73608398 C-131.57742225 71.81480335 -127.15019741 70.79301774 -122.73046875 69.546875 C-116.01531433 67.67125674 -109.20683939 66.31443258 -102.375 64.9375 C-92.41893898 62.91262488 -82.48815768 60.86424498 -72.6184082 58.45214844 C-59.55803749 55.26951609 -46.41713272 52.46958612 -33.26855469 49.67919922 C-32.47396347 49.50953644 -31.67937225 49.33987366 -30.86070251 49.16506958 C-29.35140136 48.84281654 -27.84162192 48.52279333 -26.33131409 48.20529175 C-22.56118915 47.41954054 -22.56118915 47.41954054 -19 46 C-18.10848894 44.30025552 -18.10848894 44.30025552 -17.35180664 42.20214844 C-17.04130875 41.3975116 -16.73081085 40.59287476 -16.41090393 39.76385498 C-15.91553383 38.44988739 -15.91553383 38.44988739 -15.41015625 37.109375 C-15.06496445 36.21261047 -14.71977264 35.31584595 -14.36412048 34.39190674 C-13.2569423 31.51376549 -12.15899416 28.63222692 -11.0625 25.75 C-9.96879907 22.88237244 -8.87303251 20.01560389 -7.77159119 17.15093994 C-7.0856942 15.36640845 -6.40431857 13.58013085 -5.7280426 11.79193115 C-4.12332639 7.61068823 -2.48970141 3.7544563 0 0 Z " fill="#D2D1D1" transform="translate(537,553)"/>
<path d="M0 0 C1.20821144 -0.00324736 1.20821144 -0.00324736 2.44083118 -0.00656033 C5.12835677 -0.00882181 7.81481401 0.01760036 10.50219727 0.04418945 C12.39760011 0.04874548 14.29300765 0.05162296 16.18841553 0.05291748 C21.26570781 0.06167817 26.3425393 0.09569861 31.41967392 0.13520432 C35.60865552 0.16482501 39.79763611 0.18010573 43.98669147 0.19515324 C82.38583745 0.33444864 120.76642512 0.75788952 159.13110352 2.4699707 C158.44314641 6.12390633 157.49076734 9.34175177 156.06860352 12.7824707 C155.70637695 13.66547852 155.34415039 14.54848633 154.97094727 15.45825195 C154.69379883 16.12211914 154.41665039 16.78598633 154.13110352 17.4699707 C149.44767616 17.49569947 144.76429419 17.51328426 140.08081055 17.52490234 C138.50495689 17.52977094 136.92910724 17.53645846 135.35327148 17.54541016 C124.33180681 17.60620344 113.33767195 17.37402245 102.32250977 16.99731445 C90.13295014 16.58129898 77.94803452 16.32823244 65.75219727 16.1887207 C64.92823582 16.17916792 64.10427437 16.16961514 63.25534439 16.15977287 C56.50461496 16.08246526 49.75381372 16.01248491 43.00299072 15.94390869 C37.10684274 15.88382252 31.21074505 15.82048401 25.31469727 15.7512207 C24.51240063 15.74183472 23.71010399 15.73244873 22.88349533 15.72277832 C9.95201519 15.56524489 -2.95444262 15.17596884 -15.86889648 14.4699707 C-15.10321782 12.88413822 -14.33111684 11.30140576 -13.55639648 9.7199707 C-13.12713867 8.83825195 -12.69788086 7.9565332 -12.25561523 7.0480957 C-11.56918945 5.77192383 -11.56918945 5.77192383 -10.86889648 4.4699707 C-10.48076279 3.7113826 -10.09262909 2.95279449 -9.69273376 2.17121887 C-6.83730538 -0.49228207 -3.70032017 -0.06250345 0 0 Z " fill="#D3D2D1" transform="translate(129.868896484375,419.530029296875)"/>
<path d="M0 0 C0 3.57821008 -0.49416385 3.87795979 -2.921875 6.3203125 C-3.53546875 6.93777344 -4.1490625 7.55523437 -4.78125 8.19140625 C-5.4309375 8.82949219 -6.080625 9.46757812 -6.75 10.125 C-7.70132813 11.09373047 -7.70132813 11.09373047 -8.671875 12.08203125 C-9.290625 12.69691406 -9.909375 13.31179688 -10.546875 13.9453125 C-11.11245117 14.50750488 -11.67802734 15.06969727 -12.26074219 15.64892578 C-14.17329029 17.13461377 -15.63392449 17.59011336 -18 18 C-14.65348519 13.7122779 -11.07466717 10.20568225 -6.9375 6.6796875 C-4.49654333 4.56353555 -2.24804455 2.31829594 0 0 Z " fill="#3195E4" transform="translate(724,366)"/>
<path d="M0 0 C0 3.69418201 -1.28179295 5.77836178 -3 9 C-4.65 8.67 -6.3 8.34 -8 8 C-5.33333333 5.33333333 -2.66666667 2.66666667 0 0 Z " fill="#203F62" transform="translate(724,455)"/>
<path d="M0 0 C0.66 0.33 1.32 0.66 2 1 C-0.97 3.97 -3.94 6.94 -7 10 C-7.66 9.34 -8.32 8.68 -9 8 C-6.03 5.36 -3.06 2.72 0 0 Z " fill="#203D5F" transform="translate(706,471)"/>
</svg>
